<svg width="131" height="99" viewBox="0 0 131 99" fill="none" xmlns="http://www.w3.org/2000/svg">
<path d="M70.8008 19.7C74.1008 19.7 77.0008 17.8 78.4008 15C80.3008 13.4 81.5008 11.1 81.5008 8.4C81.4008 3.8 77.7008 0 73.0008 0C70.9008 0 69.0008 0.8 67.5008 2C66.6008 2.7 65.9008 3.6 65.4008 4.6C64.8008 5.7 64.5008 7 64.5008 8.4C64.5008 13.1 68.3008 16.9 73.0008 16.9C74.5008 16.9 75.9008 16.5 77.1008 15.8C75.6008 17.1 73.7008 17.8 71.6008 17.8C66.9008 17.8 63.1008 14 63.1008 9.3C63.1008 8.4 63.2008 7.5 63.5008 6.7C62.7008 8 62.3008 9.5 62.3008 11.1C62.3008 15.9 66.1008 19.7 70.8008 19.7Z" fill="#00ACEC"/>
<path d="M34.5 60.7999C36.8 60.0999 38.8 59.1999 40.7 57.9999C41 57.7999 41.2 57.6999 41.5 57.4999C42.2 58.1999 42.9 58.9999 43.7 59.7999C45 61.0999 46.8 63.0999 48.7 65.0999C49.1 64.5999 49.5 64.1999 49.9 63.6999C47.9 61.5999 45.8 59.3999 44.5 57.9999C43.7 57.1999 43 56.3999 42.3 55.6999C42.1 55.8999 41.8 56.0999 41.5 56.1999C39.6 57.3999 37.5 58.2999 35.3 58.9999C33 59.6999 30.3 59.9999 27.3 59.9999C23.6 59.9999 20.1 59.3999 16.9 58.2999C13.7 57.1999 10.8 55.5999 8.4 53.4999C6 51.3999 4.2 48.8999 2.8 45.8999C1.4 42.8999 0.8 39.4999 0.8 35.8999C0.8 32.4999 1.4 29.2999 2.6 26.3999L2 27.5999C0.7 30.6999 0 34.0999 0 37.6999C0 41.2999 0.7 44.6999 2 47.6999C3.4 50.6999 5.2 53.2999 7.6 55.2999C10 57.3999 12.8 58.9999 16.1 60.0999C19.3 61.1999 22.8 61.7999 26.5 61.7999C29.6 61.7999 32.3 61.4999 34.5 60.7999ZM127.5 80.5999C127.2 80.9999 126.9 81.4999 126.7 81.8999C126.3 82.4999 125.9 82.9999 125.5 83.4999C125.1 84.0999 124.6 84.5999 124.2 85.0999C123 86.3999 121.8 87.3999 120.6 88.1999C120.5 88.2999 120.4 88.2999 120.3 88.3999C117.8 89.9999 115 90.6999 111.8 90.6999C109.6 90.6999 107.5 90.2999 105.7 89.4999C103.9 88.6999 102.3 87.4999 100.9 85.7999C99.6 84.1999 98.6 82.0999 97.8 79.3999C97 76.7999 96.6 73.5999 96.6 69.7999C96.6 63.2999 97.7 58.1999 99.9 54.5999C102 52.6999 104.6 51.6999 107.8 51.6999C111.3 51.6999 114.3 52.8999 116.8 55.3999C119.3 57.8999 121.4 61.6999 123.1 66.9999H126.2V65.1999H124C122.2 59.8999 120.1 56.0999 117.7 53.5999C115.2 51.0999 112.3 49.8999 108.7 49.8999C106.4 49.8999 104.4 50.3999 102.7 51.3999C104.7 49.6999 107.2 48.8999 110.1 48.8999C113.6 48.8999 116.6 50.0999 119.1 52.5999C121.6 55.0999 123.7 58.8999 125.4 64.1999H128.5L128.2 46.9999H125.1L123.9 47.9999L122.9 48.7999C122.9 48.7999 122.8 48.7999 122.8 48.6999C121.3 47.8999 119.4 47.1999 117.2 46.5999C114.9 45.9999 112.4 45.5999 109.7 45.5999C106.7 45.5999 103.8 45.9999 101.1 46.7999C103.5 44.3999 103.2 39.1999 101.1 35.6999C100.7 35.7999 100 35.8999 98.9 36.1999L99.4 35.6999C99.9 35.0999 100.4 33.9999 100.2 33.0999C99.9 31.9999 99.3 30.8999 98.8 29.9999L98.3 29.2999C95.9 25.2999 91.3 17.9999 88 15.7999C84.1 13.0999 82 14.3999 81.1 14.5999C80.7 14.6999 80.1 15.0999 79.4 15.6999C78.2 16.6999 76.9 18.0999 76.1 19.3999C76.1 19.4999 76 19.4999 76 19.5999C75.4 20.5999 74.4 22.2999 73.5 23.9999C72.1 26.3999 70.8 28.7999 70.5 29.3999C70.1 30.1999 69.8 30.9999 68.7 31.2999H68.4C65.5 31.8999 57.4 34.6999 57 34.7999C56.8 34.8999 56.7 34.9999 56.4 34.8999C56.2 34.8999 56.1 34.8999 55.9 34.7999C55.5 34.6999 55.2 34.6999 54.8 34.5999C53.9 34.3999 53 34.1999 52.1 33.8999C51.6 33.7999 51.3 33.8999 50.5 34.0999C49.7 34.2999 48.5 34.3999 47.6 34.5999C46.9 34.6999 46.8 34.9999 46.6 35.2999L44.7 28.7999L44.4 27.7999L44.3 27.5999L44 26.9999C44 26.9999 43.7 26.5999 43.5 26.4999C43.4 26.4999 43.4 26.3999 43.3 26.3999C41.7 22.4999 39.9 19.5999 37.9 17.5999C35.4 15.1999 32.4 13.8999 28.8 13.8999C26.4 13.8999 24.3 14.3999 22.5 15.4999C24.6 13.7999 27.1 12.8999 30.2 12.8999C33.8 12.8999 36.8 14.0999 39.3 16.5999C41.6 18.7999 43.5 22.1999 45.2 26.6999C45.4 27.1999 45.5 27.5999 45.7 28.0999H48.8L48.5 11.0999H45.4L43.2 12.8999C41.6 12.0999 39.7 11.3999 37.3 10.7999C35 10.1999 32.4 9.8999 29.6 9.8999C25.7 9.8999 22.1 10.4999 18.7 11.6999C16.1 12.5999 13.7 13.8999 11.7 15.3999C11.1 15.7999 10.5 16.2999 10 16.7999C8.6 18.0999 7.4 19.4999 6.4 20.9999C5.6 22.1999 4.9 23.4999 4.3 24.7999C2.9 27.8999 2.2 31.1999 2.2 34.7999C2.2 38.3999 2.9 41.7999 4.2 44.7999C5.6 47.7999 7.4 50.3999 9.8 52.3999C12.2 54.4999 15 56.0999 18.3 57.1999C21.5 58.2999 25 58.8999 28.7 58.8999C31.8 58.8999 34.5 58.5999 36.7 57.8999C39 57.1999 41 56.2999 42.9 55.0999C43.2 54.8999 43.4 54.7999 43.7 54.5999C44.4 55.2999 45.1 56.0999 45.9 56.8999C47.2 58.2999 49.3 60.3999 51.3 62.5999C50.5 63.4999 49.8 64.3999 49 65.2999C42.5 72.9999 36 80.7999 36 80.7999C36 80.7999 35.7 80.7999 35.3 80.8999C33.7 81.0999 29.9 81.6999 29.4 82.0999C29.2 82.2999 28.9 82.4999 28.8 82.7999C28.6 83.1999 28.4 83.5999 28.5 84.0999C28.5 84.1999 28.6 84.3999 28.6 84.3999C28.8 84.7999 29 84.8999 30 84.9999C31.3 85.0999 38.7 84.9999 38.7 84.9999C38.7 84.9999 39.8 84.8999 40.5 84.9999H45.8C45.4 85.4999 45.2 85.6999 45.2 85.6999L45 86.0999H37.4C37.4 86.0999 30 86.1999 28.7 86.0999C27.4 85.9999 27.4 85.9999 27.2 85.1999V85.0999C26.6 85.5999 26.2 86.2999 26.4 86.9999C26.6 87.7999 26.6 87.7999 27.9 87.8999C29.2 87.9999 36.6 87.8999 36.6 87.8999C36.6 87.8999 37.7 87.7999 38.4 87.8999H44.2L44.5 87.5999C44.5 87.5999 50.9 80.0999 56.5 73.2999C57.3 74.1999 58.2 75.0999 59 75.9999C60.6 77.7999 61.9 79.2999 62.9 80.4999C63.5 81.1999 64 81.7999 64.3 82.3999C63.1 82.5999 61.3 82.6999 59 82.7999V85.0999H86.9C87.9 86.4999 88.9 87.6999 90.2 88.8999C92.6 90.9999 95.3 92.6999 98.5 93.7999C101.7 94.8999 105.1 95.4999 108.7 95.4999C111.7 95.4999 114.4 95.1999 116.6 94.4999C118.8 93.7999 120.7 92.8999 122.5 91.7999L121.3 92.6999C119.5 93.8999 117.4 94.8999 115.2 95.5999C113 96.2999 110.3 96.5999 107.3 96.5999C103.7 96.5999 100.2 95.9999 97.1 94.8999C93.9 93.7999 91.1 92.1999 88.8 89.9999C87.6 88.8999 86.5 87.5999 85.5 86.1999H57.5V85.5999H56.7V87.9999H84.5C85.5 89.3999 86.5 90.5999 87.8 91.7999C90.2 93.8999 92.9 95.5999 96.1 96.6999C99.3 97.7999 102.7 98.3999 106.3 98.3999C109.3 98.3999 112 98.0999 114.2 97.3999C116.4 96.6999 118.5 95.7999 120.3 94.4999C122 93.3999 123.5 92.0999 124.8 90.4999C125.3 89.8999 125.8 89.2999 126.3 88.5999C126.6 88.2999 126.8 87.9999 127.1 87.6999C128.4 86.1999 129.5 84.3999 130.5 82.4999L127.5 80.5999ZM78.8 30.5999C78.8 30.5999 79.8 30.0999 81.5 31.8999C82.8 33.2999 86.5 37.5999 88 39.2999C87.4 39.4999 86.8 39.6999 86.2 39.7999C84.5 37.8999 81.3 34.0999 80.1 32.8999C79.2 31.9999 78.5 31.6999 78 31.5999L78.8 30.5999ZM42.3 27.9999L45.5 38.2999L32.1 38.3999L29 28.1999L42.3 27.9999ZM56.2 49.4999C56 49.2999 55.9 49.0999 55.7 48.8999C55.6 48.7999 55.6 48.6999 55.5 48.5999C55.4 48.4999 55.4 48.3999 55.3 48.3999C55.2 48.2999 55.2 48.1999 55.1 48.0999L55 47.9999C54.9 47.8999 54.9 47.7999 54.8 47.6999C55 47.6999 55.2 47.5999 55.4 47.5999H56C56.2 47.5999 56.4 47.5999 56.6 47.4999C56.8 47.4999 57 47.4999 57.2 47.3999H60.4V45.5999H60.1C59.3 45.5999 58.6 45.6999 58 45.6999H55.5C55.5 45.6999 55.3 45.6999 55.2 45.7999H54.7C54.6 45.7999 54.5 45.7999 54.4 45.8999C54.4 45.7999 54.4 45.7999 54.5 45.6999C54.5 45.5999 54.6 45.5999 54.6 45.4999L54.7 45.3999C54.8 45.3999 54.8 45.2999 54.9 45.2999C55 45.2999 55 45.1999 55.1 45.1999H55.2C55.3 45.1999 55.4 45.0999 55.4 45.0999H55.5C55.6 45.0999 55.7 45.0999 55.7 44.9999H55.9C56 44.9999 56.1 44.9999 56.2 44.8999C57.3 44.6999 58.9 44.4999 61 44.3999C61.4 44.3999 61.9 44.3999 62.4 44.2999L65.7 44.1999H66.6C68.6 44.0999 69.7 43.9999 69.7 43.9999C70.6 43.9999 71.4 43.1999 71.4 42.2999V42.1999H22.3C22.2 42.1999 22.2 42.1999 22.1 42.0999C22.1 42.0999 22 42.0999 22 41.9999C21.9 41.9999 21.9 41.8999 21.8 41.8999C21.8 41.8999 21.7 41.8999 21.7 41.7999L21.6 41.6999L21.5 41.5999L21.4 41.4999C21.4 41.4999 21.4 41.3999 21.3 41.3999C21.3 41.2999 21.2 41.2999 21.2 41.1999V41.0999C21.2 40.9999 21.1 40.8999 21.1 40.7999L21 41.1999C20.8 41.2999 20.7 41.3999 20.5 41.5999L20.4 41.6999L20.3 41.7999C20.3 41.8999 20.2 41.8999 20.2 41.9999V42.0999C20.2 42.1999 20.2 42.1999 20.1 42.2999V42.6999C20.1 43.5999 20.9 44.3999 21.8 44.3999C22 44.3999 23.3 44.4999 24.9 44.5999C26.8 44.6999 29 44.8999 29.5 44.9999C30.4 45.0999 31.2 45.2999 31.9 45.5999C32.1 45.5999 32.2 45.6999 32.4 45.6999C33.7 46.0999 34.9 46.6999 36.1 47.4999C37.4 48.3999 38.5 49.3999 39.4 50.2999C39.6 50.5999 39.9 50.7999 40.2 51.0999L41 51.8999C40.9 51.8999 40.9 51.9999 40.8 51.9999C40.4 52.2999 39.9 52.4999 39.5 52.7999C39.2 52.4999 38.9 52.0999 38.5 51.7999L38 51.2999C37.1 50.3999 36 49.3999 34.7 48.4999C33.4 47.5999 32 46.8999 30.5 46.4999C29.8 46.2999 29 46.0999 28.1 45.8999H27.9C27.9 45.8999 27.6 45.8999 27.5 45.7999C27.4 45.7999 27.2 45.7999 27.1 45.6999H26.9C26.7 45.6999 26.5 45.6999 26.4 45.5999H24.2V47.3999C25.5 47.4999 26.5 47.5999 27.4 47.6999C28.3 47.7999 29.1 47.9999 29.8 48.2999C31.3 48.6999 32.6 49.3999 34 50.2999C34.3 50.4999 34.5 50.6999 34.8 50.8999H34.9C35.7 51.4999 36.3 52.0999 36.9 52.5999L37.4 53.0999C37.5 53.2999 37.7 53.3999 37.9 53.5999C36.1 54.1999 34.2 54.5999 32.2 54.5999C29.9 54.5999 27.8 54.1999 26 53.3999C24.1 52.5999 22.5 51.3999 21.1 49.6999C19.8 48.0999 18.8 45.9999 18 43.3999C17.2 40.7999 16.8 37.5999 16.8 33.8999C16.8 27.4999 17.9 22.5999 20.1 18.9999C22.2 16.9999 25 15.9999 28.3 15.9999C31.9 15.9999 34.9 17.1999 37.4 19.6999C39 21.2999 40.5 23.4999 41.8 26.1999H28.5C28.5 26.1999 28.2 26.2999 28.1 26.2999C28 26.2999 28 26.3999 27.9 26.3999H27.8L27.7 26.4999L27.4 26.7999C27.3 26.8999 27.2 27.0999 27.1 27.1999C27 27.2999 27 27.4999 27 27.5999V28.0999C27 28.0999 27 28.3999 27.1 28.5999L29.6 36.8999L30 38.2999H24.1C23.4 38.2999 22.8 38.6999 22.6 39.2999C22.5 39.4999 22.4 39.6999 22.4 39.9999V40.3999C22.5 40.6999 22.6 40.8999 22.8 41.0999C23.1 41.4999 23.6 41.6999 24.1 41.6999H74.8C75.7 41.5999 76.4 40.8999 76.4 39.9999C76.4 39.0999 75.6 38.2999 74.7 38.2999H72.6L76.8 33.4999C76.8 33.4999 77.8 32.9999 79.5 34.7999C80.5 35.7999 82.8 38.4999 84.5 40.4999C78.3 42.3999 71.9 44.4999 68.1 45.9999H68C67.9 45.9999 67.8 46.0999 67.7 46.0999C67.6 46.0999 67.6 46.0999 67.5 46.1999C67.4 46.1999 67.3 46.2999 67.2 46.2999C67.1 46.2999 67.1 46.3999 67 46.3999C66.9 46.3999 66.8 46.4999 66.7 46.4999C66.6 46.4999 66.6 46.5999 66.5 46.5999C66.4 46.6999 66.3 46.6999 66.2 46.6999C66.1 46.6999 66 46.7999 66 46.7999C66 46.7999 65.9 46.7999 65.9 46.8999C65.8 46.8999 65.8 46.9999 65.7 46.9999C65.7 46.9999 65.6 46.9999 65.6 47.0999C65.5 47.0999 65.5 47.1999 65.4 47.1999C65.4 47.1999 65.3 47.1999 65.3 47.2999C65.2 47.2999 65.2 47.3999 65.2 47.3999L65.1 47.4999C65 47.4999 65 47.5999 64.9 47.5999L64.6 47.8999C62.9 49.4999 61.1 51.2999 59.6 53.0999L59.3 52.7999C57.8 51.2999 56.8 50.2999 56.2 49.4999ZM65.7 81.9999V81.7999C65.7 81.4999 65.5 81.0999 65.2 80.4999C64.8 79.8999 64.3 79.2999 63.7 78.4999C62.7 77.2999 61.4 75.7999 59.8 73.9999C59.1 73.1999 58.4 72.3999 57.6 71.5999C58 71.1999 58.3 70.6999 58.7 70.2999C59.5 71.1999 60.4 72.0999 61.2 72.9999C62.8 74.7999 64.1 76.2999 65.1 77.4999C65.7 78.1999 66.2 78.8999 66.6 79.4999C67 80.0999 67.1 80.4999 67.1 80.7999C67.1 81.3999 66.7 81.7999 65.7 81.9999ZM90.2 52.6999C89.8 53.0999 89.3 53.4999 88.9 53.9999C88.1 54.7999 87.4 55.6999 86.8 56.6999C85.9 57.9999 85.2 59.3999 84.5 60.7999C83.2 63.8999 82.5 67.2999 82.5 70.9999C82.5 73.6999 82.9 76.2999 83.6 78.6999C83.2 78.2999 82.8 77.9999 82.5 77.5999L81.5 76.5999C81.2 75.0999 81.1 73.5999 81.1 71.8999C81.1 68.3999 81.7 65.0999 83 62.0999C82.8 62.5999 82.5 62.9999 82.3 63.4999C81 66.5999 80.3 69.9999 80.3 73.6999V75.2999C80 74.9999 79.8 74.6999 79.5 74.4999C78.5 73.4999 77.5 72.3999 76.4 71.2999L75.2 70.0999C72.8 67.6999 70 64.5999 66.7 60.9999C66.8 60.8999 66.9 60.7999 66.9 60.6999C67.5 59.9999 67.9 59.4999 68.2 59.2999C72.3 56.5999 79.1 56.9999 88.3 54.1999L88.8 53.6999L89.1 53.3999C90.1 52.4999 91 51.7999 91.9 51.2999C91.3 51.6999 90.7 52.1999 90.2 52.6999Z" fill="#00ACEC"/>
</svg>
